<?xml version="1.0" encoding="utf-8"?>
<svg width="46" height="46" viewBox="0 0 46 46" fill="none" xmlns="http://www.w3.org/2000/svg">
  <path d="M0 23C0 10.3086 10.3086 0 23 0C35.6914 0 46 10.3086 46 23C46 35.6914 35.6914 46 23 46C10.3086 46 0 35.6914 0 23ZM5.543 27.125C4.65628 19.9062 13.7735 10.3672 21.6211 8.5C21.6211 8.5 18.7696 10.6836 18.7696 12.5625C18.7696 16.3281 20.5899 15.0508 20.5899 15.0508L20.5899 29.6133C20.5899 30.5859 21.5 31.1289 22.7735 31.1289C24.0469 31.1289 26.2344 29.5508 26.2344 29.5508L26.2344 17.3594C26.2344 16.0234 25.2071 14.8906 24.4727 14.2656C26.4336 14.2656 27.3242 14.9336 27.3242 14.9336C27.3242 14.9336 29.8711 11.6289 36.4844 9.89453C35.4805 11.1719 32.3008 14.9648 32.3008 16.1211L32.3008 29.4336C32.3008 30.1016 33.0899 30.1602 33.5742 30.1602C34.0586 30.1602 36.2188 29.6562 38.7344 26.8828C38.7344 27.7266 35.3789 33.3008 30.2969 36.5898L26.961 33.7383L23.5 37.5C23.5 37.5 15.7735 37.1602 12.461 32.2188C13.3555 32.3555 14.7032 32.5234 14.7032 31.1289L14.7032 19.9062C14.7032 18.9961 14.2774 18.5703 13.4883 18.5703C12.7032 18.5703 9.81253 19.5938 5.543 27.125Z" fill="#000000" fill-rule="evenodd" />
</svg>
